<svg xmlns="http://www.w3.org/2000/svg" width="124.75" height="138.56" viewBox="0 0 124.75 138.56">
  <metadata><?xpacket begin="﻿" id="W5M0MpCehiHzreSzNTczkc9d"?>
<x:xmpmeta xmlns:x="adobe:ns:meta/" x:xmptk="Adobe XMP Core 5.6-c138 79.159824, 2016/09/14-01:09:01        ">
   <rdf:RDF xmlns:rdf="http://www.w3.org/1999/02/22-rdf-syntax-ns#">
      <rdf:Description rdf:about=""/>
   </rdf:RDF>
</x:xmpmeta>
                                                                                                    
                                                                                                    
                                                                                                    
                                                                                                    
                                                                                                    
                                                                                                    
                                                                                                    
                                                                                                    
                                                                                                    
                                                                                                    
                                                                                                    
                                                                                                    
                                                                                                    
                                                                                                    
                                                                                                    
                                                                                                    
                                                                                                    
                                                                                                    
                                                                                                    
                                                                                                    
                           
<?xpacket end="w"?></metadata>
<defs>
    <style>
      .cls-1 {
        fill: #9363cd;
        fill-rule: evenodd;
      }
    </style>
  </defs>
  <path id="ico" class="cls-1" d="M927.37,1094.47a3.149,3.149,0,0,0-3.148-3.15H867.55a3.15,3.15,0,0,0,0,6.3h56.672A3.149,3.149,0,0,0,927.37,1094.47Zm31.484,75.58H943.112v-31.49a3.149,3.149,0,1,0-6.3,0v31.49H864.4a3.148,3.148,0,0,0-3.149,3.15,6.3,6.3,0,0,1-12.593,0V1053.53h88.155v28.34a3.149,3.149,0,1,0,6.3,0v-31.49a3.149,3.149,0,0,0-3.148-3.15H845.511a3.147,3.147,0,0,0-3.148,3.15V1173.2a12.594,12.594,0,0,0,12.594,12.59h94.452A12.594,12.594,0,0,0,962,1173.2,3.15,3.15,0,0,0,958.854,1170.05Zm-9.445,9.44H865.775a12.578,12.578,0,0,0,1.331-3.14h87.728A6.274,6.274,0,0,1,949.409,1179.49ZM908.48,1072.42a3.15,3.15,0,0,0,0-6.3H877a3.15,3.15,0,0,0,0,6.3H908.48Zm-40.93,34.64a3.15,3.15,0,0,0,0,6.3h37.781a3.15,3.15,0,0,0,0-6.3H867.55Zm98.023-42.68a3.152,3.152,0,0,0-4.3,1.15l-47.226,73.44a3.149,3.149,0,1,0,5.453,3.15l10.3-16.01a13.887,13.887,0,0,0,8.592,3,14.145,14.145,0,0,0,13.931-11.82l14.427-48.67A3.144,3.144,0,0,0,965.573,1064.38ZM947.9,1110.35c-1.5,9.07-6.911,14.43-13.932,10.6-0.22-.12-0.381-0.28-0.589-0.4l21.992-34.2Z" transform="translate(-842.375 -1047.22)"/>
</svg>
