<svg xmlns="http://www.w3.org/2000/svg" width="104.47" height="143.69" viewBox="0 0 104.47 143.69">
  <metadata><?xpacket begin="﻿" id="W5M0MpCehiHzreSzNTczkc9d"?>
<x:xmpmeta xmlns:x="adobe:ns:meta/" x:xmptk="Adobe XMP Core 5.6-c138 79.159824, 2016/09/14-01:09:01        ">
   <rdf:RDF xmlns:rdf="http://www.w3.org/1999/02/22-rdf-syntax-ns#">
      <rdf:Description rdf:about=""/>
   </rdf:RDF>
</x:xmpmeta>
                                                                                                    
                                                                                                    
                                                                                                    
                                                                                                    
                                                                                                    
                                                                                                    
                                                                                                    
                                                                                                    
                                                                                                    
                                                                                                    
                                                                                                    
                                                                                                    
                                                                                                    
                                                                                                    
                                                                                                    
                                                                                                    
                                                                                                    
                                                                                                    
                                                                                                    
                                                                                                    
                           
<?xpacket end="w"?></metadata>
<defs>
    <style>
      .cls-1 {
        fill: #9363cd;
        fill-rule: evenodd;
      }
    </style>
  </defs>
  <path id="ico" class="cls-1" d="M1165.12,1104.9h39.17a3.265,3.265,0,1,0,0-6.53h-39.17A3.265,3.265,0,1,0,1165.12,1104.9Zm0-16.33h52.23a3.265,3.265,0,1,0,0-6.53h-52.23A3.265,3.265,0,1,0,1165.12,1088.57Zm0,48.98h39.17a3.265,3.265,0,1,0,0-6.53h-39.17A3.265,3.265,0,1,0,1165.12,1137.55Zm0-16.33h52.23a3.265,3.265,0,1,0,0-6.53h-52.23A3.265,3.265,0,1,0,1165.12,1121.22Zm75.08-68.57h-13.05a3.265,3.265,0,1,0,0,6.53h9.79v114.29h-91.41V1059.18h9.79a3.265,3.265,0,1,0,0-6.53h-13.06a3.263,3.263,0,0,0-3.26,3.27v120.81a3.263,3.263,0,0,0,3.26,3.27h97.94a3.265,3.265,0,0,0,3.27-3.27V1055.92A3.265,3.265,0,0,0,1240.2,1052.65Zm-26.11-6.53h-13.06v-6.53a3.263,3.263,0,0,0-3.27-3.26h-13.05a3.263,3.263,0,0,0-3.27,3.26v6.53h-13.06a3.263,3.263,0,0,0-3.26,3.27v13.06a3.261,3.261,0,0,0,3.26,3.26h45.71a3.261,3.261,0,0,0,3.26-3.26v-13.06A3.263,3.263,0,0,0,1214.09,1046.12Zm-3.27,13.06h-39.17v-6.53h16.32v-9.79h6.53v9.79h16.32v6.53Z" transform="translate(-1139 -1036.31)"/>
</svg>
