<svg xmlns="http://www.w3.org/2000/svg" width="113.5" height="156.12" viewBox="0 0 113.5 156.12">
  <metadata><?xpacket begin="﻿" id="W5M0MpCehiHzreSzNTczkc9d"?>
<x:xmpmeta xmlns:x="adobe:ns:meta/" x:xmptk="Adobe XMP Core 5.6-c138 79.159824, 2016/09/14-01:09:01        ">
   <rdf:RDF xmlns:rdf="http://www.w3.org/1999/02/22-rdf-syntax-ns#">
      <rdf:Description rdf:about=""/>
   </rdf:RDF>
</x:xmpmeta>
                                                                                                    
                                                                                                    
                                                                                                    
                                                                                                    
                                                                                                    
                                                                                                    
                                                                                                    
                                                                                                    
                                                                                                    
                                                                                                    
                                                                                                    
                                                                                                    
                                                                                                    
                                                                                                    
                                                                                                    
                                                                                                    
                                                                                                    
                                                                                                    
                                                                                                    
                                                                                                    
                           
<?xpacket end="w"?></metadata>
<defs>
    <style>
      .cls-1 {
        fill: #9363cd;
        fill-rule: evenodd;
      }
    </style>
  </defs>
  <path id="ico" class="cls-1" d="M598.941,1110.39A28.386,28.386,0,0,0,627.322,1082v-17.74a28.381,28.381,0,0,0-56.761,0V1082A28.385,28.385,0,0,0,598.941,1110.39Zm-21.285-46.13a21.286,21.286,0,1,1,42.571,0V1082a21.286,21.286,0,1,1-42.571,0v-17.74Zm63.856,56.77H556.371a14.2,14.2,0,0,0-14.19,14.2v28.38a3.548,3.548,0,1,0,7.095,0v-28.38a7.1,7.1,0,0,1,7.1-7.1h85.141a7.1,7.1,0,0,1,7.1,7.1v28.38a3.548,3.548,0,1,0,7.1,0v-28.38A14.2,14.2,0,0,0,641.512,1121.03Zm-39.03,35.41H602.45a3.53,3.53,0,0,0-7.056.19l-10.519,30.83a2.853,2.853,0,0,0-.035.54,3.76,3.76,0,0,0-.089.45c0,0.08.043,0.15,0.05,0.23a3.431,3.431,0,0,0,.1.53,3.672,3.672,0,0,0,.3.89c0.032,0.05.067,0.09,0.1,0.15A3.488,3.488,0,0,0,588.3,1192h21.285a3.55,3.55,0,0,0,3.548-3.55Zm-9.231,28.46L599,1168.32l5.573,16.58H593.251Zm1.98-41.18a4.227,4.227,0,0,0,6.566,1.55,3.284,3.284,0,0,0,.862-1.56l5.971-5.97a3.54,3.54,0,0,0-2.551-6.05c-0.018,0-.028-0.01-0.042-0.01H591.846c-0.014,0-.028.01-0.042,0.01a3.54,3.54,0,0,0-2.551,6.05Z" transform="translate(-542.188 -1035.88)"/>
</svg>
