<svg xmlns="http://www.w3.org/2000/svg" width="18.5" height="24.406" viewBox="0 0 18.5 24.406">
  <metadata><?xpacket begin="﻿" id="W5M0MpCehiHzreSzNTczkc9d"?>
<x:xmpmeta xmlns:x="adobe:ns:meta/" x:xmptk="Adobe XMP Core 5.6-c138 79.159824, 2016/09/14-01:09:01        ">
   <rdf:RDF xmlns:rdf="http://www.w3.org/1999/02/22-rdf-syntax-ns#">
      <rdf:Description rdf:about=""/>
   </rdf:RDF>
</x:xmpmeta>
                                                                                                    
                                                                                                    
                                                                                                    
                                                                                                    
                                                                                                    
                                                                                                    
                                                                                                    
                                                                                                    
                                                                                                    
                                                                                                    
                                                                                                    
                                                                                                    
                                                                                                    
                                                                                                    
                                                                                                    
                                                                                                    
                                                                                                    
                                                                                                    
                                                                                                    
                                                                                                    
                           
<?xpacket end="w"?></metadata>
<defs>
    <style>
      .banner-search .cls-1 {
        fill: #676a6c;
        fill-rule: evenodd;
      }
    </style>
  </defs>
  <path id="ico" class="cls-1" d="M926.5,504.841a9.261,9.261,0,0,0-9.258,9.252c0,4.969,8.539,14.6,8.9,15a0.476,0.476,0,0,0,.673.037c0.013-.012.025-0.024,0.037-0.037,0.362-.409,8.9-10.032,8.9-15A9.262,9.262,0,0,0,926.5,504.841Zm0,23.211c-1.629-1.9-8.3-9.895-8.3-13.964a8.306,8.306,0,0,1,16.611,0C934.808,518.157,928.132,526.158,926.5,528.052Zm0.167-18.57a5.011,5.011,0,1,0,5.022,5.011A5.014,5.014,0,0,0,926.669,509.482Zm0,9.075a4.06,4.06,0,1,1,4.065-4.059A4.062,4.062,0,0,1,926.669,518.557Z" transform="translate(-917.25 -504.844)"/>
</svg>
