<svg xmlns="http://www.w3.org/2000/svg" width="70.531" height="84.813" viewBox="0 0 70.531 84.813">
  <metadata><?xpacket begin="﻿" id="W5M0MpCehiHzreSzNTczkc9d"?>
<x:xmpmeta xmlns:x="adobe:ns:meta/" x:xmptk="Adobe XMP Core 5.6-c138 79.159824, 2016/09/14-01:09:01        ">
   <rdf:RDF xmlns:rdf="http://www.w3.org/1999/02/22-rdf-syntax-ns#">
      <rdf:Description rdf:about=""/>
   </rdf:RDF>
</x:xmpmeta>
                                                                                                    
                                                                                                    
                                                                                                    
                                                                                                    
                                                                                                    
                                                                                                    
                                                                                                    
                                                                                                    
                                                                                                    
                                                                                                    
                                                                                                    
                                                                                                    
                                                                                                    
                                                                                                    
                                                                                                    
                                                                                                    
                                                                                                    
                                                                                                    
                                                                                                    
                                                                                                    
                           
<?xpacket end="w"?></metadata>
<defs>
    <style>
      .user-login .cls-1 {
        fill: #fff;
        fill-rule: evenodd;
      }
    </style>
  </defs>
  <path id="ico" class="cls-1" d="M923.279,272.416l-0.217-.1c-0.519-.235-1.04-0.457-1.573-0.666q-0.87-.348-1.767-0.649c-0.472-.155-0.947-0.3-1.427-0.441-0.732-.211-1.471-0.4-2.232-0.57-0.259-.054-0.522-0.105-0.784-0.152l-0.179-.034q-0.674-.133-1.357-0.233l-0.131-.021s-0.009,0-.014,0l-0.131-.016c-0.378-.057-0.755-0.11-1.148-0.155l-1.336-.111a36.319,36.319,0,0,0-4.96.014l-0.474.041-0.221.016-0.552.051c-0.508.052-1.013,0.123-1.518,0.205l-0.148.019c-0.344.058-.689,0.121-1.028,0.185-0.377.067-.749,0.141-1.121,0.222-0.72.162-1.435,0.346-2.127,0.548-0.551.158-1.095,0.331-1.607,0.507l-0.355.127c-1.085.384-2.162,0.824-3.207,1.308l-0.278.133-0.006.007a35.378,35.378,0,0,0-20.076,31.772c0,0.31.021,0.615,0.04,0.921l0.091,2.141H943.7l0.094-2.116c0.021-.315.04-0.625,0.04-0.946A35.331,35.331,0,0,0,923.279,272.416Zm-46.528,31.625A31.9,31.9,0,0,1,895,275.687l0.352-.139,0.041-.039c0.856-.391,1.739-0.747,2.635-1.062l0.284-.1c0.488-.17.973-0.324,1.477-0.467,0.629-.183,1.27-0.35,1.912-0.494,0.332-.069.665-0.138,1.008-0.2,0.272-.05.542-0.1,0.816-0.144l0.134-.024c0.493-.077.987-0.149,1.48-0.2l1.126-.1a30.309,30.309,0,0,1,4.593,0l1.095,0.091c0.271,0.031.541,0.068,0.87,0.114l0.4,0.056c0.411,0.061.823,0.132,1.236,0.209l0.193,0.036c0.233,0.043.463,0.088,0.682,0.134,0.678,0.149,1.345.323,2.006,0.515,0.438,0.127.872,0.258,1.295,0.4,0.538,0.179,1.068.374,1.594,0.582,0.5,0.2,1,.41,1.5.635l0.086,0.04a31.88,31.88,0,0,1,18.58,28.51h-63.63v0Zm23.3-39.2c0.258,0.108.525,0.2,0.792,0.3l0.56,0.2c0.215,0.082.432,0.163,0.652,0.232a21.846,21.846,0,0,0,6.385,1l0.173,0a21.561,21.561,0,0,0,2.22-.114c0.248-.024.489-0.063,0.732-0.1l0.539-.081c0.3-.04.607-0.084,0.924-0.146,0.216-.045.427-0.1,0.637-0.158l0.589-.15c0.291-.071.582-0.142,0.869-0.231,0.18-.057.356-0.122,0.529-0.187l0.474-.171c0.338-.117.678-0.238,1.02-0.379,0.132-.058.261-0.12,0.389-0.181l0.153-.077c0.467-.209.932-0.422,1.393-0.669l0.3-.179c0.516-.293,1.031-0.595,1.553-0.952,0.271-.182.529-0.387,0.784-0.591l0.882-.684a21.794,21.794,0,0,0,7.984-16.732l0.01-.182a21.97,21.97,0,0,0-43.9-1.384l-0.019.286c-0.027.362-.05,0.725-0.05,1.1A21.924,21.924,0,0,0,900.055,264.844Zm-9.938-21.1,0.021-.311a18.531,18.531,0,0,1,37.023,1.013l-0.011.18a18.514,18.514,0,0,1-6.763,14.264l-0.818.624c-0.183.147-.367,0.3-0.6,0.454-0.413.281-.851,0.533-1.295,0.784l-0.247.15c-0.372.2-.762,0.377-1.169,0.558l-0.456.22c-0.262.109-.537,0.2-0.81,0.3l-0.568.2c-0.11.041-.222,0.086-0.331,0.118-0.212.067-.428,0.116-0.644,0.17l-0.687.175c-0.148.04-.295,0.081-0.426,0.109-0.229.045-.463,0.075-0.7,0.108l-0.654.1c-0.159.028-.318,0.056-0.5,0.073-0.573.06-1.15,0.092-1.736,0.1H908.6a18.482,18.482,0,0,1-5.508-.837c-0.153-.048-0.3-0.108-0.453-0.165l-0.647-.235c-0.2-.071-0.4-0.14-0.594-0.221a18.5,18.5,0,0,1-11.319-17.068C890.074,244.317,890.1,244.031,890.117,243.748Z" transform="translate(-873.313 -222.656)"/>
</svg>
