<svg xmlns="http://www.w3.org/2000/svg" width="30.09" height="36.188" viewBox="0 0 30.09 36.188">
  <metadata><?xpacket begin="﻿" id="W5M0MpCehiHzreSzNTczkc9d"?>
<x:xmpmeta xmlns:x="adobe:ns:meta/" x:xmptk="Adobe XMP Core 5.6-c138 79.159824, 2016/09/14-01:09:01        ">
   <rdf:RDF xmlns:rdf="http://www.w3.org/1999/02/22-rdf-syntax-ns#">
      <rdf:Description rdf:about=""/>
   </rdf:RDF>
</x:xmpmeta>
                                                                                                    
                                                                                                    
                                                                                                    
                                                                                                    
                                                                                                    
                                                                                                    
                                                                                                    
                                                                                                    
                                                                                                    
                                                                                                    
                                                                                                    
                                                                                                    
                                                                                                    
                                                                                                    
                                                                                                    
                                                                                                    
                                                                                                    
                                                                                                    
                                                                                                    
                                                                                                    
                           
<?xpacket end="w"?></metadata>
<defs>
    <style>
      .main-header .cls-1 {
        fill: #545151;
        fill-rule: evenodd;
      }
    </style>
  </defs>
  <path id="ico" class="cls-1" d="M1402.23,79.951l-0.09-.042c-0.22-.1-0.44-0.195-0.67-0.284q-0.375-.148-0.75-0.277c-0.2-.066-0.41-0.127-0.61-0.188-0.32-.09-0.63-0.171-0.96-0.243-0.11-.023-0.22-0.045-0.33-0.065l-0.08-.015c-0.19-.037-0.38-0.07-0.58-0.1l-0.05-.009s0,0-.01,0l-0.05-.007c-0.16-.025-0.33-0.047-0.49-0.066l-0.57-.047a15.506,15.506,0,0,0-2.12.006l-0.2.017-0.1.007-0.23.022c-0.22.022-.43,0.053-0.65,0.087l-0.06.009c-0.15.024-.3,0.051-0.44,0.079q-0.24.043-.48,0.094c-0.31.069-.61,0.148-0.91,0.234-0.23.068-.47,0.141-0.68,0.217l-0.16.055c-0.46.164-.92,0.352-1.36,0.558l-0.12.057v0a15.1,15.1,0,0,0-8.57,13.56c0,0.132.01,0.262,0.01,0.393l0.04,0.914h29.99l0.04-.9c0.01-.134.02-0.267,0.02-0.4A15.086,15.086,0,0,0,1402.23,79.951Zm-19.85,13.5a13.607,13.607,0,0,1,7.78-12.1l0.15-.059,0.02-.017c0.37-.167.74-0.319,1.13-0.454l0.12-.043c0.21-.072.41-0.138,0.63-0.2q0.4-.118.81-0.211l0.43-.086,0.35-.062,0.06-.01c0.21-.033.42-0.063,0.63-0.086l0.48-.042a13,13,0,0,1,1.96,0l0.47,0.039c0.11,0.013.23,0.029,0.37,0.049l0.17,0.024c0.17,0.026.35,0.056,0.53,0.089l0.08,0.016c0.1,0.018.2,0.037,0.29,0.057,0.29,0.063.57,0.138,0.86,0.219,0.18,0.054.37,0.11,0.55,0.17,0.23,0.076.45,0.16,0.68,0.248,0.21,0.084.43,0.175,0.64,0.271l0.03,0.017a13.6,13.6,0,0,1,7.93,12.167h-27.15Zm9.94-16.728c0.11,0.046.23,0.086,0.34,0.127l0.24,0.086c0.09,0.035.18,0.07,0.28,0.1a9.249,9.249,0,0,0,2.72.424l0.08,0a8.983,8.983,0,0,0,.94-0.049c0.11-.01.21-0.027,0.32-0.044l0.23-.034c0.13-.017.26-0.036,0.39-0.062,0.09-.019.18-0.043,0.27-0.067l0.25-.064c0.13-.03.25-0.061,0.38-0.1,0.07-.024.15-0.052,0.22-0.08l0.2-.073c0.15-.05.29-0.1,0.44-0.162,0.06-.025.11-0.051,0.16-0.077l0.07-.033c0.2-.089.4-0.18,0.59-0.286l0.13-.076c0.22-.125.44-0.254,0.67-0.406,0.11-.078.22-0.165,0.33-0.252l0.38-.292a9.305,9.305,0,0,0,3.4-7.141l0.01-.078a9.379,9.379,0,0,0-18.74-.591v0.122a3.64,3.64,0,0,0-.02.469A9.337,9.337,0,0,0,1392.32,76.719Zm-4.24-9,0.01-.133a7.908,7.908,0,0,1,15.8.432v0.077A7.941,7.941,0,0,1,1401,74.18l-0.35.266c-0.08.063-.16,0.126-0.25,0.194-0.18.12-.37,0.228-0.56,0.335l-0.1.064c-0.16.085-.33,0.16-0.5,0.238l-0.19.094c-0.12.046-.23,0.086-0.35,0.127l-0.24.087-0.14.051c-0.09.028-.19,0.049-0.28,0.072l-0.29.075c-0.07.017-.13,0.035-0.18,0.047-0.1.019-.2,0.032-0.3,0.046l-0.28.042c-0.07.012-.14,0.024-0.21,0.031-0.25.026-.49,0.039-0.74,0.042h-0.07a7.823,7.823,0,0,1-2.35-.357c-0.07-.02-0.13-0.046-0.2-0.07l-0.27-.1c-0.09-.03-0.17-0.06-0.26-0.094a7.9,7.9,0,0,1-4.83-7.284C1388.06,67.959,1388.07,67.837,1388.08,67.716Z" transform="translate(-1380.91 -58.719)"/>
</svg>
